<svg width="28" height="28" viewBox="0 0 28 28" fill="none" xmlns="http://www.w3.org/2000/svg">
<path d="M3.5 14C3.5 8.20101 8.20101 3.5 14 3.5C19.799 3.5 24.5 8.20101 24.5 14C24.5 19.799 19.799 24.5 14 24.5C8.20101 24.5 3.5 19.799 3.5 14Z" fill="#505050"/>
<path d="M19.25 17.341C19.25 17.5941 19.1494 17.8369 18.9704 18.0159C18.7914 18.1949 18.5486 18.2955 18.2955 18.2955H9.70455C9.45138 18.2955 9.20859 18.1949 9.02958 18.0159C8.85057 17.8369 8.75 17.5941 8.75 17.341V12.091C8.75 11.8378 8.85057 11.595 9.02958 11.416C9.20859 11.237 9.45138 11.1364 9.70455 11.1364H11.6136L12.5682 9.70459H15.4318L16.3864 11.1364H18.2955C18.5486 11.1364 18.7914 11.237 18.9704 11.416C19.1494 11.595 19.25 11.8378 19.25 12.091V17.341Z" fill="#EAEAEA"/>
<path d="M13.9999 16.3864C15.0543 16.3864 15.909 15.5317 15.909 14.4773C15.909 13.423 15.0543 12.5682 13.9999 12.5682C12.9455 12.5682 12.0908 13.423 12.0908 14.4773C12.0908 15.5317 12.9455 16.3864 13.9999 16.3864Z" stroke="#505050" stroke-linecap="round" stroke-linejoin="round"/>
</svg>
