<svg width="28" height="28" viewBox="0 0 28 28" fill="none" xmlns="http://www.w3.org/2000/svg">
<path d="M3.5 14C3.5 8.20101 8.20101 3.5 14 3.5C19.799 3.5 24.5 8.20101 24.5 14C24.5 19.799 19.799 24.5 14 24.5C8.20101 24.5 3.5 19.799 3.5 14Z" fill="#505050"/>
<path d="M9 11C9 9.89543 9.89543 9 11 9H17C18.1046 9 19 9.89543 19 11V17C19 18.1046 18.1046 19 17 19H11C9.89543 19 9 18.1046 9 17V11Z" fill="#EAEAEA"/>
<path d="M11 18.9999H17C18.1046 18.9999 19 18.1045 19 16.9999V14.9999L17.5305 13.9419C16.7669 13.3921 15.7233 13.4489 15.024 14.0784L12.976 15.9215C12.2767 16.5509 11.2331 16.6078 10.4695 16.058L9 14.9999V16.9999C9 18.1045 9.89543 18.9999 11 18.9999Z" fill="#909090"/>
<circle cx="12.25" cy="12.25" r="1.25" fill="#909090"/>
</svg>
