<svg width="28" height="28" viewBox="0 0 28 28" fill="none" xmlns="http://www.w3.org/2000/svg">
<path d="M3.5 14C3.5 8.20101 8.20101 3.5 14 3.5C19.799 3.5 24.5 8.20101 24.5 14C24.5 19.799 19.799 24.5 14 24.5C8.20101 24.5 3.5 19.799 3.5 14Z" fill="#505050"/>
<path d="M12.2732 17.8838C13.4728 18.4159 14.9015 18.387 16.125 17.6806C18.1577 16.507 18.8542 13.9078 17.6806 11.875L17.5556 11.6585M10.3191 16.1251C9.14553 14.0924 9.842 11.4931 11.8747 10.3195C13.0982 9.61311 14.527 9.5842 15.7265 10.1164M9.24658 16.1669L10.6126 16.5329L10.9786 15.1669M17.0212 12.8329L17.3872 11.4669L18.7532 11.8329" stroke="white" stroke-width="1.2" stroke-linecap="round" stroke-linejoin="round"/>
</svg>
