<svg width="22" height="22" viewBox="0 0 22 22" fill="none" xmlns="http://www.w3.org/2000/svg">
<path d="M20.1663 11V16.5C20.1663 18.5251 18.5247 20.1667 16.4997 20.1667H5.49967C3.47463 20.1667 1.83301 18.5251 1.83301 16.5V5.50004C1.83301 3.475 3.47463 1.83337 5.49967 1.83337H10.9997M14.3788 3.68756C14.3788 3.68756 14.3788 4.99867 15.6899 6.30977C17.001 7.62088 18.3122 7.62088 18.3122 7.62088M8.39146 14.6571L11.1448 14.2638C11.5419 14.2071 11.91 14.0231 12.1937 13.7394L19.6233 6.30977C20.3474 5.58567 20.3474 4.41166 19.6233 3.68756L18.3122 2.37645C17.5881 1.65235 16.414 1.65235 15.6899 2.37645L8.26035 9.80605C7.97666 10.0897 7.79264 10.4578 7.7359 10.8549L7.34257 13.6083C7.25517 14.2201 7.77961 14.7445 8.39146 14.6571Z" stroke="#E7E7E7" stroke-width="1.2" stroke-linecap="round"/>
</svg>
