<svg width="20" height="20" viewBox="0 0 20 20" fill="none" xmlns="http://www.w3.org/2000/svg">
<path d="M2 11C2.55228 11 3 10.5523 3 10C3 9.44772 2.55228 9 2 9C1.44772 9 1 9.44772 1 10C1 10.5523 1.44772 11 2 11Z" fill="white"/>
<path d="M2 5C2.55228 5 3 4.55228 3 4C3 3.44772 2.55228 3 2 3C1.44772 3 1 3.44772 1 4C1 4.55228 1.44772 5 2 5Z" fill="white"/>
<path d="M2 17C2.55228 17 3 16.5523 3 16C3 15.4477 2.55228 15 2 15C1.44772 15 1 15.4477 1 16C1 16.5523 1.44772 17 2 17Z" fill="white"/>
<path d="M19 10L7 10M19 4L7 4M19 16L7 16M3 10C3 10.5523 2.55228 11 2 11C1.44772 11 1 10.5523 1 10C1 9.44772 1.44772 9 2 9C2.55228 9 3 9.44772 3 10ZM3 4C3 4.55228 2.55228 5 2 5C1.44772 5 1 4.55228 1 4C1 3.44772 1.44772 3 2 3C2.55228 3 3 3.44772 3 4ZM3 16C3 16.5523 2.55228 17 2 17C1.44772 17 1 16.5523 1 16C1 15.4477 1.44772 15 2 15C2.55228 15 3 15.4477 3 16Z" stroke="white" stroke-width="0.8" stroke-linecap="round" stroke-linejoin="round"/>
</svg>
