<svg width="15" height="16" viewBox="0 0 15 16" fill="none" xmlns="http://www.w3.org/2000/svg">
<g clip-path="url(#clip0_976_4609)">
<path d="M7.5 10.6667C8.88071 10.6667 10 9.4728 10 8.00004C10 6.52728 8.88071 5.33337 7.5 5.33337C6.11929 5.33337 5 6.52728 5 8.00004C5 9.4728 6.11929 10.6667 7.5 10.6667Z" stroke="white" stroke-width="1.5" stroke-linecap="round" stroke-linejoin="round"/>
<path d="M10 5.33333V8.66666C10 9.19709 10.1976 9.7058 10.5492 10.0809C10.9008 10.4559 11.3777 10.6667 11.875 10.6667C12.3723 10.6667 12.8492 10.4559 13.2008 10.0809C13.5525 9.7058 13.75 9.19709 13.75 8.66666V7.99999C13.7499 6.49535 13.2726 5.03498 12.3958 3.85635C11.519 2.67772 10.2941 1.85014 8.92041 1.50819C7.54671 1.16624 6.10496 1.33002 4.8296 1.9729C3.55423 2.61579 2.52025 3.69996 1.89579 5.04914C1.27133 6.39832 1.09311 7.93315 1.39011 9.40407C1.68711 10.875 2.44187 12.1955 3.53165 13.1508C4.62143 14.1062 5.98215 14.6402 7.39255 14.6661C8.80295 14.692 10.1801 14.2082 11.3 13.2933" stroke="white" stroke-width="1.5" stroke-linecap="round" stroke-linejoin="round"/>
</g>
<defs>
<clipPath id="clip0_976_4609">
<rect width="15" height="16" fill="white"/>
</clipPath>
</defs>
</svg>
