<svg width="24" height="24" viewBox="0 0 24 24" fill="none" xmlns="http://www.w3.org/2000/svg">
<path d="M20.7439 15.7206L20.2322 15.4072V15.4072L20.7439 15.7206ZM19.7894 17.2794L20.3011 17.5927V17.5927L19.7894 17.2794ZM3.25609 8.27942L2.7444 7.96609H2.7444L3.25609 8.27942ZM4.21064 6.72057L4.72233 7.0339V7.0339L4.21064 6.72057ZM6.81852 6.06172L7.10538 5.53474L7.10538 5.53474L6.81852 6.06172ZM3.95487 10.7383L3.668 11.2652H3.668L3.95487 10.7383ZM17.1815 17.9383L16.8946 18.4652L16.8946 18.4652L17.1815 17.9383ZM20.0451 13.2617L19.7583 13.7887L20.0451 13.2617ZM4.21064 17.2794L3.69895 17.5928H3.69895L4.21064 17.2794ZM3.25609 15.7206L3.76778 15.4073H3.76778L3.25609 15.7206ZM19.7894 6.72058L20.3011 6.40726V6.40725L19.7894 6.72058ZM20.7439 8.27943L20.2322 8.59276V8.59276L20.7439 8.27943ZM20.0451 10.7383L20.332 11.2653L20.0451 10.7383ZM17.1815 6.06174L17.4684 6.58872L17.1815 6.06174ZM3.95487 13.2617L4.24173 13.7887H4.24173L3.95487 13.2617ZM6.81851 17.9383L6.53165 17.4113L6.53165 17.4113L6.81851 17.9383ZM17.08 6.11698L16.7931 5.59L17.08 6.11698ZM6.92 6.11697L6.63313 6.64395L6.63314 6.64395L6.92 6.11697ZM17.08 17.883L17.3669 17.356L17.3669 17.356L17.08 17.883ZM6.92 17.883L7.20686 18.41L7.20687 18.41L6.92 17.883ZM11.0455 3.6H12.9545V2.4H11.0455V3.6ZM12.9545 20.4H11.0455V21.6H12.9545V20.4ZM11.0455 20.4C10.2887 20.4 9.73635 19.83 9.73635 19.2H8.53635C8.53635 20.5583 9.69347 21.6 11.0455 21.6V20.4ZM14.2636 19.2C14.2636 19.83 13.7113 20.4 12.9545 20.4V21.6C14.3065 21.6 15.4636 20.5583 15.4636 19.2H14.2636ZM12.9545 3.6C13.7113 3.6 14.2636 4.17003 14.2636 4.8H15.4636C15.4636 3.44174 14.3065 2.4 12.9545 2.4V3.6ZM11.0455 2.4C9.69347 2.4 8.53635 3.44174 8.53635 4.8H9.73635C9.73635 4.17003 10.2887 3.6 11.0455 3.6V2.4ZM20.2322 15.4072L19.2777 16.9661L20.3011 17.5927L21.2556 16.0339L20.2322 15.4072ZM3.76778 8.59275L4.72233 7.0339L3.69895 6.40724L2.7444 7.96609L3.76778 8.59275ZM4.72233 7.0339C5.07468 6.45849 5.88552 6.23698 6.53165 6.58871L7.10538 5.53474C5.9253 4.89236 4.40097 5.2608 3.69895 6.40724L4.72233 7.0339ZM4.24173 10.2113C3.61432 9.86975 3.42922 9.14564 3.76778 8.59275L2.7444 7.96609C2.0286 9.13505 2.4692 10.6127 3.668 11.2652L4.24173 10.2113ZM19.2777 16.9661C18.9253 17.5415 18.1145 17.763 17.4684 17.4113L16.8946 18.4652C18.0747 19.1076 19.599 18.7392 20.3011 17.5927L19.2777 16.9661ZM21.2556 16.0339C21.9714 14.8649 21.5308 13.3873 20.332 12.7347L19.7583 13.7887C20.3857 14.1302 20.5708 14.8544 20.2322 15.4072L21.2556 16.0339ZM4.72233 16.9661L3.76778 15.4073L2.7444 16.0339L3.69895 17.5928L4.72233 16.9661ZM19.2777 7.03391L20.2322 8.59276L21.2556 7.9661L20.3011 6.40726L19.2777 7.03391ZM20.2322 8.59276C20.5708 9.14565 20.3857 9.86976 19.7583 10.2113L20.332 11.2653C21.5308 10.6127 21.9714 9.13506 21.2556 7.9661L20.2322 8.59276ZM17.4684 6.58872C18.1145 6.23699 18.9253 6.4585 19.2777 7.03391L20.3011 6.40725C19.599 5.26081 18.0747 4.89237 16.8946 5.53476L17.4684 6.58872ZM3.76778 15.4073C3.42922 14.8544 3.61432 14.1303 4.24173 13.7887L3.668 12.7348C2.4692 13.3873 2.02859 14.865 2.7444 16.0339L3.76778 15.4073ZM3.69895 17.5928C4.40097 18.7392 5.9253 19.1076 7.10538 18.4653L6.53165 17.4113C5.88552 17.763 5.07467 17.5415 4.72233 16.9661L3.69895 17.5928ZM17.3669 6.64396L17.4684 6.58872L16.8946 5.53476L16.7931 5.59L17.3669 6.64396ZM6.53165 6.5887L6.63313 6.64395L7.20687 5.58999L7.10538 5.53474L6.53165 6.5887ZM17.4684 17.4113L17.3669 17.356L16.7931 18.41L16.8946 18.4652L17.4684 17.4113ZM6.63314 17.356L6.53165 17.4113L7.10538 18.4653L7.20686 18.41L6.63314 17.356ZM3.668 11.2652C4.25013 11.5821 4.25013 12.4179 3.668 12.7348L4.24173 13.7887C5.65889 13.0173 5.65889 10.9827 4.24173 10.2113L3.668 11.2652ZM7.20687 18.41C7.80622 18.0837 8.53635 18.5176 8.53635 19.2H9.73635C9.73635 17.6072 8.03211 16.5945 6.63313 17.3561L7.20687 18.41ZM15.4636 19.2C15.4636 18.5176 16.1938 18.0837 16.7931 18.41L17.3669 17.356C15.9679 16.5945 14.2636 17.6072 14.2636 19.2H15.4636ZM20.332 12.7347C19.7499 12.4179 19.7499 11.5821 20.332 11.2653L19.7583 10.2113C18.3411 10.9827 18.3411 13.0173 19.7583 13.7887L20.332 12.7347ZM6.63314 6.64395C8.03211 7.40549 9.73635 6.39282 9.73635 4.8H8.53635C8.53635 5.4824 7.80622 5.91625 7.20687 5.58999L6.63314 6.64395ZM16.7931 5.59C16.1938 5.91626 15.4636 5.48241 15.4636 4.8H14.2636C14.2636 6.39283 15.9679 7.4055 17.3669 6.64396L16.7931 5.59ZM14.4 12C14.4 13.3255 13.3255 14.4 12 14.4V15.6C13.9882 15.6 15.6 13.9882 15.6 12H14.4ZM12 14.4C10.6745 14.4 9.60001 13.3255 9.60001 12H8.40001C8.40001 13.9882 10.0118 15.6 12 15.6V14.4ZM9.60001 12C9.60001 10.6745 10.6745 9.6 12 9.6V8.4C10.0118 8.4 8.40001 10.0118 8.40001 12H9.60001ZM12 9.6C13.3255 9.6 14.4 10.6745 14.4 12H15.6C15.6 10.0118 13.9882 8.4 12 8.4V9.6Z" fill="#E7E7E7"/>
</svg>
