<svg width="22" height="22" viewBox="0 0 22 22" fill="none" xmlns="http://www.w3.org/2000/svg">
<path fill-rule="evenodd" clip-rule="evenodd" d="M2.52051 5.49992C2.52051 3.85457 3.85433 2.52075 5.49967 2.52075H10.9997C11.3794 2.52075 11.6872 2.21295 11.6872 1.83325C11.6872 1.45356 11.3794 1.14575 10.9997 1.14575H5.49967C3.09493 1.14575 1.14551 3.09518 1.14551 5.49992V16.4999C1.14551 18.9047 3.09493 20.8541 5.49967 20.8541H16.4997C18.9044 20.8541 20.8538 18.9047 20.8538 16.4999V10.9999C20.8538 10.6202 20.546 10.3124 20.1663 10.3124C19.7866 10.3124 19.4788 10.6202 19.4788 10.9999V16.4999C19.4788 18.1453 18.145 19.4791 16.4997 19.4791H5.49967C3.85433 19.4791 2.52051 18.1453 2.52051 16.4999V5.49992ZM15.0505 2.45391C15.878 1.62637 17.2197 1.62637 18.0473 2.45391L19.5457 3.95232C20.3732 4.77987 20.3732 6.12158 19.5457 6.94913L18.2171 8.27767C18.1128 8.22603 18.0031 8.17018 17.8894 8.11029C17.1235 7.70712 16.2148 7.14127 15.5366 6.46305C14.8584 5.78484 14.2925 4.87608 13.8893 4.11028C13.8294 3.99649 13.7736 3.88675 13.7219 3.78244L15.0505 2.45391ZM14.5643 7.43533C15.3669 8.23788 16.3875 8.86953 17.1958 9.29897L11.9714 14.5234C11.6472 14.8476 11.2265 15.058 10.7727 15.1228L7.626 15.5723C6.92674 15.6722 6.32738 15.0729 6.42727 14.3736L6.87679 11.2269C6.94164 10.773 7.15195 10.3524 7.47616 10.0282L12.7006 4.80373C13.1301 5.61207 13.7617 6.63275 14.5643 7.43533Z" fill="#E7E7E7"/>
</svg>
