<svg width="20" height="20" viewBox="0 0 20 20" fill="none" xmlns="http://www.w3.org/2000/svg">
<path d="M8.3335 10.8332C8.69137 11.3117 9.14796 11.7075 9.67229 11.994C10.1966 12.2805 10.7764 12.4508 11.3724 12.4935C11.9683 12.5362 12.5665 12.4502 13.1263 12.2414C13.6861 12.0326 14.1944 11.7058 14.6168 11.2832L17.1168 8.78322C17.8758 7.99738 18.2958 6.94487 18.2863 5.85238C18.2768 4.7599 17.8386 3.71485 17.0661 2.94231C16.2935 2.16978 15.2485 1.73157 14.156 1.72208C13.0635 1.71259 12.011 2.13256 11.2252 2.89156L9.79183 4.31656" stroke="white" stroke-width="1.2" stroke-linecap="round" stroke-linejoin="round"/>
<path d="M11.6668 9.16677C11.309 8.68833 10.8524 8.29245 10.328 8.00599C9.80371 7.71953 9.22391 7.54918 8.62796 7.50649C8.03201 7.46381 7.43384 7.5498 6.87405 7.75862C6.31425 7.96744 5.8059 8.29421 5.3835 8.71677L2.8835 11.2168C2.12451 12.0026 1.70453 13.0551 1.71402 14.1476C1.72352 15.2401 2.16172 16.2851 2.93426 17.0577C3.70679 17.8302 4.75184 18.2684 5.84433 18.2779C6.93681 18.2874 7.98932 17.8674 8.77517 17.1084L10.2002 15.6834" stroke="white" stroke-width="1.2" stroke-linecap="round" stroke-linejoin="round"/>
</svg>
