<svg width="33" height="33" viewBox="0 0 33 33" fill="none" xmlns="http://www.w3.org/2000/svg">
<g clip-path="url(#clip0_1018_2365)">
<path d="M16.5026 33L21.1184 6.92416C25.5187 6.92416 26.9069 7.40978 27.1084 9.38667C27.1084 9.38667 30.062 8.28188 31.5509 6.03588C25.7403 3.33259 19.9035 3.21118 19.9035 3.21118L16.4965 7.37741H16.5046L13.0976 3.21118C13.0976 3.21118 7.25879 3.33259 1.4502 6.03588C2.93911 8.27986 5.89277 9.38667 5.89277 9.38667C6.09425 7.40776 7.48042 6.92416 11.8525 6.92012L16.5066 33H16.5026Z" fill="white"/>
<path d="M16.501 2.00724C21.1974 1.97081 26.5749 2.73769 32.0772 5.14556C32.8126 3.81618 33 3.22938 33 3.22938C26.9859 0.837697 21.3526 0.0202342 16.501 0C11.6494 0.0202342 6.01612 0.837697 0 3.22938C0 3.22938 0.267965 3.95377 0.924782 5.14556C6.42713 2.73769 11.8046 1.97081 16.501 2.00724Z" fill="white"/>
</g>
<defs>
<clipPath id="clip0_1018_2365">
<rect width="33" height="33" fill="white"/>
</clipPath>
</defs>
</svg>
