<svg width="82" height="41" viewBox="0 0 82 41" fill="none" xmlns="http://www.w3.org/2000/svg">
<path d="M8.23768 41C6.87266 41 5.63013 40.6675 4.51011 40.0025C3.3901 39.3025 2.48008 38.3925 1.78007 37.2724C1.11505 36.1524 0.782549 34.9274 0.782549 33.5974V1.3618H8.23768V10.5495H19.8404V18.0046H8.23768V33.2299C8.23768 33.2999 8.27268 33.3699 8.34268 33.4399C8.41268 33.5099 8.48268 33.5449 8.55269 33.5449H19.8404V41H8.23768ZM23.9724 41V10.5495H61.143C62.5431 10.5495 63.8031 10.8995 64.9231 11.5995C66.0431 12.2645 66.9356 13.157 67.6006 14.277C68.2657 15.397 68.5982 16.6221 68.5982 17.9521V41H61.143V18.3196C61.143 18.2496 61.108 18.1796 61.038 18.1096C61.003 18.0396 60.933 18.0046 60.828 18.0046H50.3803C50.2753 18.0046 50.1878 18.0396 50.1178 18.1096C50.0828 18.1796 50.0653 18.2496 50.0653 18.3196V41H42.5577V18.3196C42.5577 18.2496 42.5227 18.1796 42.4527 18.1096C42.3827 18.0396 42.3127 18.0046 42.2427 18.0046H31.7425C31.6725 18.0046 31.6025 18.0396 31.5325 18.1096C31.4975 18.1796 31.48 18.2496 31.48 18.3196V41H23.9724ZM73.614 41V10.5495H81.0692V41H73.614ZM73.614 8.08192V0.574287H81.0692V8.08192H73.614Z" fill="white"/>
</svg>
