<svg width="20" height="20" viewBox="0 0 20 20" fill="none" xmlns="http://www.w3.org/2000/svg">
<path d="M11.71 1.52748C11.582 1.42288 11.4345 1.3447 11.2761 1.29747C11.1177 1.25024 10.9515 1.2349 10.7871 1.25234C10.6227 1.26977 10.4634 1.31964 10.3185 1.39906C10.1735 1.47847 10.0457 1.58585 9.9425 1.71498L6.3225 6.24998H7.9225L10.9187 2.49498L11.8813 3.28123L9.46875 6.24998H11.0787L12.85 4.06998L14.9975 5.82373L14.625 6.24998H15C15.3728 6.24959 15.7435 6.30478 16.1 6.41373C16.2362 6.15827 16.2795 5.86347 16.2225 5.57964C16.1655 5.29582 16.0117 5.04057 15.7875 4.85748L11.71 1.52748ZM3.75 6.87498C3.75 6.70922 3.81585 6.55025 3.93306 6.43304C4.05027 6.31583 4.20924 6.24998 4.375 6.24998H5.0725L6.06625 4.99998H4.375C3.87772 4.99998 3.40081 5.19753 3.04917 5.54916C2.69754 5.90079 2.5 6.3777 2.5 6.87498V14.375C2.5 15.2038 2.82924 15.9986 3.41529 16.5847C4.00134 17.1707 4.7962 17.5 5.625 17.5H15C15.663 17.5 16.2989 17.2366 16.7678 16.7678C17.2366 16.2989 17.5 15.663 17.5 15V9.99998C17.5 9.33694 17.2366 8.70106 16.7678 8.23222C16.2989 7.76338 15.663 7.49998 15 7.49998H4.375C4.20924 7.49998 4.05027 7.43414 3.93306 7.31693C3.81585 7.19972 3.75 7.04074 3.75 6.87498ZM13.125 12.5H14.375C14.5408 12.5 14.6997 12.5658 14.8169 12.683C14.9342 12.8003 15 12.9592 15 13.125C15 13.2907 14.9342 13.4497 14.8169 13.5669C14.6997 13.6841 14.5408 13.75 14.375 13.75H13.125C12.9592 13.75 12.8003 13.6841 12.6831 13.5669C12.5658 13.4497 12.5 13.2907 12.5 13.125C12.5 12.9592 12.5658 12.8003 12.6831 12.683C12.8003 12.5658 12.9592 12.5 13.125 12.5Z" fill="white" fill-opacity="0.9"/>
</svg>
