<svg width="28" height="28" viewBox="0 0 28 28" fill="none" xmlns="http://www.w3.org/2000/svg">
<path d="M15.6917 2.95519C15.2183 2.55622 14.6191 2.3374 14 2.3374C13.3809 2.3374 12.7817 2.55622 12.3083 2.95519L4.43333 9.59936C4.14104 9.84571 3.90607 10.1529 3.74486 10.4995C3.58365 10.8461 3.50008 11.2238 3.5 11.606V22.4619C3.5 23.5889 4.41467 24.5035 5.54167 24.5035H9.04167C9.58315 24.5035 10.1025 24.2884 10.4853 23.9055C10.8682 23.5226 11.0833 23.0033 11.0833 22.4619V17.7917C11.0833 16.9984 11.7157 16.3544 12.5032 16.3334H15.4968C15.8769 16.3434 16.238 16.5015 16.5032 16.7739C16.7684 17.0463 16.9168 17.4115 16.9167 17.7917V22.4619C16.9167 23.5889 17.8313 24.5035 18.9583 24.5035H22.4583C22.9998 24.5035 23.5191 24.2884 23.902 23.9055C24.2849 23.5226 24.5 23.0033 24.5 22.4619V11.6049C24.4999 11.2226 24.4164 10.845 24.2551 10.4984C24.0939 10.1518 23.859 9.84454 23.5667 9.59819L15.6917 2.95519Z" fill="currentColor"/>
</svg>
