<svg width="32" height="28" viewBox="0 0 32 28" fill="none" xmlns="http://www.w3.org/2000/svg">
<path d="M28.6 4H3.4C2.6268 4 2 4.53166 2 5.1875V21.8125C2 22.4683 2.6268 23 3.4 23H28.6C29.3732 23 30 22.4683 30 21.8125V5.1875C30 4.53166 29.3732 4 28.6 4Z" fill="currentColor"/>
<path d="M17.9375 11.3403H24.1375M19.4875 15.2501H24.1375" stroke="#393939" stroke-width="2.3375" stroke-linecap="round" stroke-linejoin="round"/>
<path d="M10 8C10.5651 8 11.1175 8.16757 11.5873 8.48152C12.0572 8.79546 12.4234 9.24169 12.6397 9.76376C12.8559 10.2858 12.9125 10.8603 12.8022 11.4145C12.692 11.9688 12.4199 12.4779 12.0203 12.8774C11.6207 13.277 11.1116 13.5491 10.5574 13.6594C10.0032 13.7696 9.42869 13.713 8.90662 13.4968C8.38454 13.2805 7.93832 12.9143 7.62437 12.4445C7.31043 11.9746 7.14286 11.4222 7.14286 10.8571L7.14571 10.7331C7.17767 9.99757 7.49235 9.30273 8.02413 8.79352C8.55591 8.28431 9.26374 8.00004 10 8ZM11.1429 14.2857C11.9006 14.2857 12.6273 14.5867 13.1632 15.1226C13.699 15.6584 14 16.3851 14 17.1429V17.7143C14 18.0174 13.8796 18.3081 13.6653 18.5224C13.4509 18.7367 13.1602 18.8571 12.8571 18.8571H7.14286C6.83975 18.8571 6.54906 18.7367 6.33474 18.5224C6.12041 18.3081 6 18.0174 6 17.7143V17.1429C6 16.3851 6.30102 15.6584 6.83684 15.1226C7.37266 14.5867 8.09938 14.2857 8.85714 14.2857H11.1429Z" fill="#393939"/>
</svg>
