<svg width="28" height="28" viewBox="0 0 28 28" fill="none" xmlns="http://www.w3.org/2000/svg">
<path d="M16.394 2.13838C16.2148 1.99193 16.0083 1.88248 15.7866 1.81636C15.5648 1.75024 15.3321 1.72876 15.102 1.75317C14.8718 1.77759 14.6488 1.8474 14.4459 1.95858C14.2429 2.06976 14.064 2.22009 13.9195 2.40088L8.8515 8.74988H11.0915L15.2862 3.49288L16.6337 4.59363L13.2562 8.74988H15.5103L17.99 5.69788L20.9965 8.15313L20.475 8.74988H21C21.5219 8.74933 22.0409 8.8266 22.54 8.97913C22.7306 8.62148 22.7912 8.20875 22.7115 7.8114C22.6317 7.41405 22.4164 7.0567 22.1025 6.80038L16.394 2.13838ZM5.25 9.62488C5.25 9.39282 5.34219 9.17026 5.50628 9.00616C5.67038 8.84207 5.89294 8.74988 6.125 8.74988H7.1015L8.49275 6.99988H6.125C5.42881 6.99988 4.76113 7.27644 4.26884 7.76872C3.77656 8.26101 3.5 8.92869 3.5 9.62488V20.1249C3.5 21.2852 3.96094 22.398 4.78141 23.2185C5.60188 24.0389 6.71468 24.4999 7.875 24.4999H21C21.9283 24.4999 22.8185 24.1311 23.4749 23.4748C24.1313 22.8184 24.5 21.9281 24.5 20.9999V13.9999C24.5 13.0716 24.1313 12.1814 23.4749 11.525C22.8185 10.8686 21.9283 10.4999 21 10.4999H6.125C5.89294 10.4999 5.67038 10.4077 5.50628 10.2436C5.34219 10.0795 5.25 9.85695 5.25 9.62488ZM18.375 17.4999H20.125C20.3571 17.4999 20.5796 17.5921 20.7437 17.7562C20.9078 17.9203 21 18.1428 21 18.3749C21 18.6069 20.9078 18.8295 20.7437 18.9936C20.5796 19.1577 20.3571 19.2499 20.125 19.2499H18.375C18.1429 19.2499 17.9204 19.1577 17.7563 18.9936C17.5922 18.8295 17.5 18.6069 17.5 18.3749C17.5 18.1428 17.5922 17.9203 17.7563 17.7562C17.9204 17.5921 18.1429 17.4999 18.375 17.4999Z" fill="currentColor"/>
</svg>
