<svg width="18" height="18" viewBox="0 0 18 18" fill="none" xmlns="http://www.w3.org/2000/svg">
<path d="M6.375 6C6.01033 6 5.66059 6.14223 5.40273 6.39541C5.14487 6.64858 5 6.99196 5 7.35V7.41726C5 7.45935 5.02328 7.49798 5.06048 7.51765L9.07193 9.63854C9.10513 9.6561 9.14487 9.6561 9.17808 9.63855L13.1895 7.51833C13.2267 7.49866 13.25 7.46002 13.25 7.41792V7.35C13.25 6.99196 13.1051 6.64858 12.8473 6.39541C12.5894 6.14223 12.2397 6 11.875 6H6.375ZM13.25 8.44097C13.25 8.35542 13.159 8.30059 13.0834 8.34057L9.28794 10.347C9.23786 10.3735 9.18187 10.3873 9.125 10.3873C9.06813 10.3873 9.01214 10.3735 8.96206 10.347L5.16664 8.34057C5.09101 8.30059 5 8.35542 5 8.44097V11.4C5 11.758 5.14487 12.1014 5.40273 12.3546C5.66059 12.6078 6.01033 12.75 6.375 12.75H11.875C12.2397 12.75 12.5894 12.6078 12.8473 12.3546C13.1051 12.1014 13.25 11.758 13.25 11.4V8.44097Z" fill="white"/>
</svg>
