<svg width="18" height="18" viewBox="0 0 18 18" fill="none" xmlns="http://www.w3.org/2000/svg">
<path d="M13.4997 10.6767V11.9187C13.5002 12.034 13.4766 12.1481 13.4303 12.2537C13.384 12.3594 13.3161 12.4542 13.231 12.5321C13.1459 12.6101 13.0454 12.6694 12.9359 12.7064C12.8265 12.7433 12.7105 12.757 12.5955 12.7466C11.319 12.6082 10.0929 12.1729 9.01567 11.4757C8.01343 10.8401 7.1637 9.99205 6.52683 8.99179C5.82579 7.91178 5.38952 6.68216 5.25337 5.40253C5.243 5.28805 5.25663 5.17267 5.2934 5.06373C5.33016 4.9548 5.38925 4.8547 5.4669 4.7698C5.54455 4.68491 5.63906 4.61708 5.74441 4.57063C5.84977 4.52419 5.96366 4.50015 6.07883 4.50004H7.32326C7.52457 4.49806 7.71973 4.56921 7.87236 4.70022C8.025 4.83122 8.1247 5.01315 8.15287 5.2121C8.2054 5.60955 8.30281 5.9998 8.44324 6.3754C8.49905 6.52357 8.51113 6.68461 8.47804 6.83942C8.44496 6.99424 8.3681 7.13635 8.25657 7.24891L7.72977 7.77467C8.32027 8.8111 9.18013 9.66925 10.2186 10.2586L10.7454 9.73282C10.8582 9.62152 11.0006 9.54481 11.1557 9.51179C11.3108 9.47877 11.4722 9.49083 11.6207 9.54653C11.997 9.68668 12.388 9.7839 12.7863 9.83632C12.9878 9.86469 13.1718 9.96598 13.3033 10.1209C13.4349 10.2759 13.5048 10.4737 13.4997 10.6767Z" fill="white"/>
</svg>
