<svg width="44" height="44" viewBox="0 0 44 44" fill="none" xmlns="http://www.w3.org/2000/svg">
<rect width="44" height="44" rx="22" fill="#535353" fill-opacity="0.4"/>
<g clip-path="url(#clip0_726_6540)">
<path d="M20.667 22.6667C20.9533 23.0495 21.3186 23.3662 21.738 23.5954C22.1575 23.8245 22.6213 23.9608 23.0981 23.9949C23.5749 24.0291 24.0534 23.9603 24.5012 23.7932C24.9491 23.6262 25.3557 23.3648 25.6937 23.0267L27.6937 21.0267C28.3009 20.3981 28.6368 19.556 28.6292 18.6821C28.6216 17.8081 28.2711 16.972 27.6531 16.354C27.035 15.736 26.199 15.3854 25.325 15.3778C24.451 15.3702 23.609 15.7062 22.9803 16.3134L21.8337 17.4534" stroke="white" stroke-width="1.5" stroke-linecap="round" stroke-linejoin="round"/>
<path d="M23.3335 21.3333C23.0472 20.9506 22.6819 20.6339 22.2624 20.4047C21.843 20.1755 21.3791 20.0392 20.9024 20.0051C20.4256 19.971 19.9471 20.0397 19.4992 20.2068C19.0514 20.3739 18.6447 20.6353 18.3068 20.9733L16.3068 22.9733C15.6996 23.602 15.3636 24.444 15.3712 25.318C15.3788 26.192 15.7294 27.028 16.3474 27.646C16.9654 28.2641 17.8015 28.6146 18.6755 28.6222C19.5495 28.6298 20.3915 28.2938 21.0201 27.6867L22.1601 26.5467" stroke="white" stroke-width="1.5" stroke-linecap="round" stroke-linejoin="round"/>
</g>
<defs>
<clipPath id="clip0_726_6540">
<rect width="16" height="16" fill="white" transform="translate(14 14)"/>
</clipPath>
</defs>
</svg>
