<svg width="44" height="44" viewBox="0 0 44 44" fill="none" xmlns="http://www.w3.org/2000/svg">
<rect width="44" height="44" rx="22" fill="#535353" fill-opacity="0.4"/>
<path d="M19.5842 31.7784V25.1039H17.5225V22.0368H19.5842V20.7153C19.5842 17.2986 21.1242 15.7153 24.4658 15.7153C24.8 15.7153 25.2617 15.7504 25.6892 15.8014C26.0094 15.8345 26.327 15.889 26.64 15.9645V18.7456C26.4591 18.7286 26.2775 18.7186 26.0958 18.7155C25.8923 18.7102 25.6886 18.7076 25.485 18.7079C24.8958 18.7079 24.4358 18.7882 24.0892 18.9664C23.8561 19.0837 23.6602 19.2639 23.5233 19.4866C23.3083 19.8379 23.2117 20.3188 23.2117 20.952V22.0368H26.4775L26.1558 23.7958L25.9167 25.1039H23.2117V32C28.1633 31.3995 32 27.1681 32 22.0368C32 16.494 27.5225 12 22 12C16.4775 12 12 16.494 12 22.0368C12 26.7441 15.2283 30.6935 19.5842 31.7784Z" fill="white"/>
</svg>
