<svg width="44" height="44" viewBox="0 0 44 44" fill="none" xmlns="http://www.w3.org/2000/svg">
<rect width="44" height="44" rx="22" fill="#535353" fill-opacity="0.4"/>
<path d="M17.8584 12.07C16.7944 12.1202 16.0678 12.29 15.4326 12.5395C14.7752 12.7958 14.218 13.1395 13.6636 13.6959C13.1092 14.2523 12.7677 14.8099 12.5134 15.4684C12.2672 16.1049 12.1004 16.8322 12.0534 17.8967C12.0064 18.9613 11.996 19.3036 12.0012 22.0192C12.0064 24.7347 12.0184 25.0751 12.07 26.142C12.1208 27.2057 12.29 27.9321 12.5396 28.5675C12.7962 29.225 13.1396 29.782 13.6962 30.3365C14.2528 30.8911 14.81 31.2318 15.47 31.4865C16.106 31.7324 16.8334 31.9 17.8978 31.9465C18.9623 31.9932 19.3049 32.004 22.0197 31.9988C24.7345 31.9936 25.0764 31.9815 26.1429 31.931C27.2096 31.8804 27.9321 31.71 28.5677 31.4615C29.2252 31.2044 29.7826 30.8615 30.3367 30.3048C30.8909 29.748 31.2322 29.19 31.4863 28.5311C31.7327 27.8951 31.9002 27.1678 31.9463 26.1041C31.993 25.0367 32.004 24.696 31.9988 21.9808C31.9936 19.2656 31.9813 18.9252 31.9307 17.8587C31.8802 16.7923 31.7107 16.0682 31.4613 15.4323C31.2043 14.7749 30.8613 14.2183 30.305 13.6633C29.7486 13.1083 29.1901 12.7673 28.5316 12.5138C27.8951 12.2675 27.1681 12.0998 26.1037 12.0538C25.0393 12.0078 24.6967 11.9958 21.9809 12.0012C19.265 12.0063 18.925 12.018 17.8584 12.07ZM17.9753 30.1475C17.0003 30.1051 16.4708 29.9431 16.118 29.8075C15.6508 29.6275 15.318 29.41 14.9664 29.0617C14.6147 28.7135 14.3988 28.3796 14.2164 27.9134C14.0794 27.5606 13.9144 27.0317 13.8688 26.0567C13.8192 25.003 13.8088 24.6866 13.803 22.0167C13.7972 19.347 13.8074 19.0309 13.8536 17.9767C13.8952 17.0026 14.0582 16.4726 14.1936 16.1199C14.3736 15.6522 14.5904 15.3199 14.9394 14.9686C15.2884 14.6172 15.6214 14.4008 16.088 14.2183C16.4405 14.0808 16.9693 13.9172 17.9438 13.8708C18.9984 13.8208 19.3144 13.8108 21.9839 13.8049C24.6533 13.7991 24.9701 13.8091 26.0251 13.8556C26.9993 13.8979 27.5296 14.0593 27.8818 14.1956C28.3491 14.3756 28.6818 14.5918 29.0331 14.9414C29.3846 15.2909 29.6012 15.6228 29.7836 16.0903C29.9213 16.4418 30.085 16.9703 30.131 17.9456C30.1812 19.0002 30.1926 19.3164 30.1973 21.9856C30.2022 24.6547 30.1927 24.9717 30.1465 26.0256C30.104 27.0006 29.9423 27.5301 29.8065 27.8834C29.6265 28.3504 29.4096 28.6834 29.0603 29.0345C28.7111 29.3858 28.3786 29.6021 27.9117 29.7845C27.5597 29.922 27.0303 30.086 26.0566 30.1324C25.0019 30.182 24.6859 30.1924 22.0155 30.1982C19.345 30.204 19.0299 30.1932 17.9753 30.1475ZM26.1276 16.6553C26.1279 16.8927 26.1987 17.1246 26.3309 17.3217C26.4631 17.5189 26.6508 17.6724 26.8703 17.7628C27.0898 17.8532 27.3311 17.8766 27.5638 17.8298C27.7965 17.7831 28.0102 17.6684 28.1777 17.5003C28.3452 17.3321 28.4591 17.1181 28.505 16.8852C28.5508 16.6523 28.5266 16.411 28.4353 16.1919C28.344 15.9728 28.1898 15.7857 27.9922 15.6542C27.7946 15.5228 27.5624 15.4528 27.3251 15.4533C27.0069 15.454 26.702 15.581 26.4774 15.8064C26.2529 16.0318 26.127 16.3372 26.1276 16.6553ZM16.8654 22.01C16.871 24.846 19.1743 27.1397 22.0096 27.1344C24.8451 27.129 27.1405 24.826 27.1351 21.99C27.1297 19.154 24.826 16.8596 21.9901 16.8652C19.1543 16.8707 16.8601 19.1743 16.8654 22.01ZM18.6667 22.0064C18.6654 21.3471 18.8596 20.7023 19.2248 20.1534C19.59 19.6045 20.1097 19.1763 20.7183 18.9228C21.3269 18.6693 21.997 18.6019 22.6438 18.7293C23.2907 18.8566 23.8853 19.1729 24.3524 19.6381C24.8195 20.1034 25.1381 20.6967 25.268 21.343C25.3979 21.9894 25.3333 22.6597 25.0822 23.2693C24.8311 23.8789 24.4049 24.4003 23.8575 24.7677C23.31 25.135 22.666 25.3318 22.0067 25.3331C21.5689 25.3341 21.1353 25.2487 20.7305 25.082C20.3257 24.9153 19.9577 24.6705 19.6476 24.3616C19.3374 24.0527 19.0912 23.6857 18.9229 23.2816C18.7546 22.8775 18.6675 22.4442 18.6667 22.0064Z" fill="white"/>
</svg>
