<svg width="44" height="44" viewBox="0 0 44 44" fill="none" xmlns="http://www.w3.org/2000/svg">
<rect width="44" height="44" rx="22" fill="#535353" fill-opacity="0.4"/>
<path d="M29.0392 29.0433H26.0775V24.4025C26.0775 23.2958 26.055 21.8717 24.5342 21.8717C22.99 21.8717 22.7542 23.0758 22.7542 24.3208V29.0433H19.7925V19.5H22.6375V20.8008H22.6758C23.0733 20.0508 24.04 19.2592 25.4842 19.2592C28.485 19.2592 29.04 21.2342 29.04 23.805L29.0392 29.0433ZM16.4475 18.1942C15.4942 18.1942 14.7283 17.4225 14.7283 16.4733C14.7283 15.525 15.495 14.7542 16.4475 14.7542C17.3975 14.7542 18.1675 15.525 18.1675 16.4733C18.1675 17.4225 17.3967 18.1942 16.4475 18.1942ZM17.9325 29.0433H14.9625V19.5H17.9325V29.0433ZM30.5208 12H13.4758C12.66 12 12 12.645 12 13.4408V30.5592C12 31.3558 12.66 32 13.4758 32H30.5183C31.3333 32 32 31.3558 32 30.5592V13.4408C32 12.645 31.3333 12 30.5183 12H30.5208Z" fill="white"/>
</svg>
