<svg width="44" height="44" viewBox="0 0 44 44" fill="none" xmlns="http://www.w3.org/2000/svg">
<rect width="44" height="44" rx="22" fill="#535353" fill-opacity="0.4"/>
<path d="M32.5398 16.4989C32.4155 16.0156 32.1704 15.5746 31.8291 15.2199C31.4877 14.8652 31.062 14.6093 30.5947 14.4778C28.8796 14 22 14 22 14C22 14 15.1204 14 13.4044 14.4778C12.9373 14.6095 12.5119 14.8655 12.1707 15.2202C11.8295 15.5749 11.5845 16.0158 11.4602 16.4989C11 18.2815 11 22 11 22C11 22 11 25.7185 11.4602 27.5011C11.5845 27.9844 11.8296 28.4254 12.1709 28.7801C12.5123 29.1348 12.938 29.3907 13.4053 29.5222C15.1204 30 22 30 22 30C22 30 28.8796 30 30.5956 29.5222C31.063 29.3908 31.4887 29.1349 31.8301 28.7802C32.1715 28.4255 32.4165 27.9844 32.5408 27.5011C33 25.7185 33 22 33 22C33 22 33 18.2815 32.5398 16.4989ZM19.7496 25.376V18.624L25.4998 22L19.7496 25.376Z" fill="white"/>
</svg>
