<svg width="53" height="53" viewBox="0 0 53 53" fill="none" xmlns="http://www.w3.org/2000/svg">
<g clip-path="url(#clip0_520_1891)">
<path d="M26.5041 53L33.9175 11.1206C40.9846 11.1206 43.2141 11.9006 43.5377 15.0756C43.5377 15.0756 48.2814 13.3012 50.6727 9.69399C41.3405 5.35233 31.9663 5.15735 31.9663 5.15735L26.4944 11.8486H26.5074L21.0356 5.15735C21.0356 5.15735 11.6581 5.35233 2.3291 9.69399C4.7204 13.2979 9.46415 15.0756 9.46415 15.0756C9.78774 11.8973 12.014 11.1206 19.0358 11.1141L26.5106 53H26.5041Z" fill="white"/>
<path d="M26.5016 3.22374C34.0444 3.16525 42.6809 4.3969 51.518 8.26409C52.6991 6.12901 53 5.18658 53 5.18658C43.341 1.34539 34.2935 0.0324974 26.5016 0C18.7097 0.0324974 9.66225 1.34539 0 5.18658C0 5.18658 0.430368 6.34999 1.48526 8.26409C10.3224 4.3969 18.9589 3.16525 26.5016 3.22374Z" fill="white"/>
</g>
<defs>
<clipPath id="clip0_520_1891">
<rect width="53" height="53" fill="white"/>
</clipPath>
</defs>
</svg>
